<svg width="16" height="17" viewBox="0 0 16 17" fill="none" xmlns="http://www.w3.org/2000/svg">
<g clip-path="url(#clip0_112_4362)">
<path d="M5.57374 0.820193C3.97509 1.37478 2.59642 2.4274 1.64023 3.82345C0.684041 5.21949 0.200732 6.88537 0.261296 8.5764C0.32186 10.2674 0.923104 11.8945 1.97671 13.2185C3.03032 14.5426 4.48077 15.4939 6.11499 15.9327C7.4399 16.2746 8.828 16.2896 10.16 15.9764C11.3666 15.7054 12.4822 15.1256 13.3975 14.2939C14.3501 13.4019 15.0415 12.267 15.3975 11.0114C15.7844 9.64603 15.8532 8.21011 15.5987 6.81394H8.15874V9.90019H12.4675C12.3814 10.3924 12.1968 10.8622 11.9249 11.2815C11.653 11.7007 11.2993 12.0608 10.885 12.3402C10.3588 12.6882 9.76574 12.9224 9.14374 13.0277C8.51992 13.1437 7.88006 13.1437 7.25624 13.0277C6.62398 12.897 6.02587 12.636 5.49999 12.2614C4.65518 11.6634 4.02084 10.8138 3.68749 9.83394C3.34851 8.83569 3.34851 7.75345 3.68749 6.75519C3.92478 6.05546 4.31703 5.41836 4.83499 4.89144C5.42773 4.27738 6.17816 3.83844 7.00394 3.62279C7.82972 3.40714 8.69894 3.42311 9.51624 3.66894C10.1547 3.86493 10.7386 4.20736 11.2212 4.66894C11.7071 4.18561 12.1921 3.70103 12.6762 3.21519C12.9262 2.95394 13.1987 2.70519 13.445 2.43769C12.7082 1.75204 11.8433 1.21851 10.9 0.867693C9.18212 0.24393 7.30246 0.227167 5.57374 0.820193Z" fill="white"/>
<path d="M5.57372 0.82019C7.3023 0.226761 9.18196 0.243083 10.9 0.86644C11.8435 1.21964 12.708 1.75574 13.4437 2.44394C13.1937 2.71144 12.93 2.96144 12.675 3.22144C12.19 3.70561 11.7054 4.18811 11.2212 4.66894C10.7385 4.20736 10.1547 3.86493 9.51622 3.66894C8.69919 3.42224 7.82999 3.40535 7.00399 3.62012C6.178 3.83489 5.42711 4.27302 4.83372 4.88644C4.31576 5.41336 3.9235 6.05046 3.68622 6.75019L1.09497 4.74394C2.02248 2.90464 3.62841 1.49772 5.57372 0.82019Z" fill="#E33629"/>
<path d="M0.40756 6.7314C0.546836 6.04114 0.778064 5.37268 1.09506 4.7439L3.68631 6.75515C3.34733 7.7534 3.34733 8.83564 3.68631 9.8339C2.82298 10.5006 1.95923 11.1706 1.09506 11.8439C0.301498 10.2643 0.0594757 8.46452 0.40756 6.7314Z" fill="#F8BD00"/>
<path d="M8.15876 6.81274H15.5988C15.8533 8.20891 15.7844 9.64483 15.3975 11.0102C15.0416 12.2658 14.3501 13.4007 13.3975 14.2927C12.5613 13.6402 11.7213 12.9927 10.885 12.3402C11.2996 12.0606 11.6535 11.7001 11.9254 11.2804C12.1973 10.8607 12.3817 10.3904 12.4675 9.89774H8.15876C8.15751 8.87024 8.15876 7.84149 8.15876 6.81274Z" fill="#587DBD"/>
<path d="M1.09375 11.844C1.95792 11.1773 2.82167 10.5073 3.685 9.83398C4.01901 10.8142 4.65426 11.6639 5.5 12.2615C6.02751 12.6343 6.62691 12.8931 7.26 13.0215C7.88382 13.1375 8.52368 13.1375 9.1475 13.0215C9.76949 12.9162 10.3626 12.682 10.8888 12.334C11.725 12.9865 12.565 13.634 13.4012 14.2865C12.4861 15.1186 11.3705 15.6988 10.1637 15.9702C8.83176 16.2834 7.44365 16.2684 6.11875 15.9265C5.07088 15.6467 4.09209 15.1535 3.24375 14.4777C2.34583 13.7648 1.61244 12.8665 1.09375 11.844Z" fill="#319F43"/>
</g>
<defs>
<clipPath id="clip0_112_4362">
<rect width="16" height="16" fill="white" transform="translate(0 0.293945)"/>
</clipPath>
</defs>
</svg>
