<svg width="64" height="32" viewBox="0 0 64 32" fill="none" xmlns="http://www.w3.org/2000/svg">
<path fill-rule="evenodd" clip-rule="evenodd" d="M47.0392 18.1403C46.9871 22.8696 47.147 31.4107 62.6448 31.581L62.6482 31.588C63.3849 31.5949 63.993 31.0007 63.9999 30.2641C64.0069 29.5274 63.4162 28.9193 62.676 28.9123C49.8504 28.7699 49.6627 23.0121 49.7149 18.1786C49.7151 18.1536 49.7154 18.1274 49.7157 18.1C49.7317 16.639 49.7854 11.7282 47.2477 7.41002C44.5165 2.75721 39.9957 0.26575 34.1823 0.199728C31.3747 0.168454 28.084 1.24913 25.1512 3.10122C22.2567 1.1831 18.9938 0.0329328 16.1861 0.00165922C10.7758 -0.0608879 6.62337 1.64526 3.84697 5.06451C1.31729 8.17796 0.0246474 12.5736 0.00032355 18.1334C-0.0167178 22.1108 0.64486 25.2157 0.696449 25.4579C0.697457 25.4626 0.698232 25.4662 0.698765 25.4688C0.858607 26.1881 1.57095 26.6433 2.29372 26.4834C3.01648 26.3236 3.47169 25.6112 3.31185 24.8885L3.31158 24.8872C3.27349 24.708 0.796637 13.0562 5.9284 6.74285C8.1662 3.99078 11.6063 2.62169 16.1583 2.67381C17.993 2.69119 20.4498 3.41743 22.8266 4.79694C18.7992 8.18839 16.551 12.7196 16.4989 17.5635C16.4224 24.402 21.9578 26.2715 24.8976 26.3027C27.8338 26.334 33.4109 24.5896 33.4874 17.7511C33.5395 12.9072 31.392 8.32738 27.4411 4.84559C29.8492 3.5182 32.3233 2.84755 34.1545 2.8684C39.0506 2.924 42.6783 4.90466 44.9439 8.75826C46.7196 11.7814 47.067 15.7114 47.0392 18.1403ZM25.1147 6.36545C21.8735 8.84998 19.2266 12.6232 19.171 17.5913C19.1085 23.3943 24.3277 23.6202 24.9219 23.6236C25.5161 23.6271 30.7422 23.5194 30.8083 17.7199C30.8639 12.7517 28.3003 8.91946 25.1147 6.36545ZM41.6706 17.5393C41.6706 18.5891 40.8196 19.4401 39.7699 19.4401C38.7201 19.4401 37.8691 18.5891 37.8691 17.5393C37.8691 16.4896 38.7201 15.6386 39.7699 15.6386C40.8196 15.6386 41.6706 16.4896 41.6706 17.5393Z" fill="white"/>
</svg>
